# xmcd
#
# Track frame offsets:
#	150
#	14662
#	27092
#	39450
#	52650
#	68930
#	84300
#	96475
#	112587
#	125750
#	139912
#	159725
#	178550
#	189545
#	202500
#	217650
#	230925
#	247100
#
# Disc length: 3480 seconds
#
# Revision: 1
# Processed by: cddbd v1.5.2PL0 Copyright (c) Steve Scherf et al.
# Submitted via: audiograbber 1.83.01
#
DISCID=f20d9612
DTITLE=Various Artist - Country Favourites - 18 Original Hits
DYEAR=1994
DGENRE=Country
TTITLE0=Glen Campbell - Rhinestone Cowboy
TTITLE1=Billy Jo Spears - What I've Got In Mind
TTITLE2=Merle Haggard - Okie From Muskogie
TTITLE3=Crystal Gayle - The Wayward Wind
TTITLE4=Kenny Rogers - Lucille
TTITLE5=Juice Newton - Queen Of Hearts
TTITLE6=Glen Campbell - Galveston
TTITLE7=Billy Jo Spears - Blanket On The Ground
TTITLE8=Merle Haggard - The Fighting Side Of Me
TTITLE9=Crystal Gayle - River Road
TTITLE10=Kenny Rogers - Coward Of The County
TTITLE11=Juice Newton - Angel Of The Morning
TTITLE12=Glen Campbell - Try A Little Kindness
TTITLE13=Billy Jo Spears - 57 Chevrolet
TTITLE14=Merle Haggard - It's Not Love (But It's Not Bad)
TTITLE15=Crystal Gayle - Talking In Your Sleep
TTITLE16=Kenny Rogers - The Gambler
TTITLE17=Juice Newton - All I Have To Do Is Dream
EXTD=Converted to "Compilation"
EXTT0=
EXTT1=
EXTT2=
EXTT3=
EXTT4=
EXTT5=
EXTT6=
EXTT7=
EXTT8=
EXTT9=
EXTT10=
EXTT11=
EXTT12=
EXTT13=
EXTT14=
EXTT15=
EXTT16=
EXTT17=
PLAYORDER=
